<svg width="14" height="14" viewBox="0 0 14 14" fill="none" xmlns="http://www.w3.org/2000/svg">
<path d="M7.0002 0.333496C5.70718 0.335953 4.44278 0.71437 3.36101 1.42266C2.27925 2.13094 1.42679 3.13852 0.90749 4.32268C0.388186 5.50683 0.224446 6.81644 0.436213 8.092C0.64798 9.36756 1.22611 10.554 2.1002 11.5068V11.5068C2.72448 12.1835 3.48216 12.7236 4.32549 13.093C5.16882 13.4623 6.07952 13.653 7.0002 13.653C7.92087 13.653 8.83157 13.4623 9.6749 13.093C10.5182 12.7236 11.2759 12.1835 11.9002 11.5068V11.5068C12.7743 10.554 13.3524 9.36756 13.5642 8.092C13.7759 6.81644 13.6122 5.50683 13.0929 4.32268C12.5736 3.13852 11.7211 2.13094 10.6394 1.42266C9.55761 0.71437 8.29321 0.335953 7.0002 0.333496V0.333496ZM7.0002 12.3335C5.61917 12.3314 4.29281 11.7937 3.3002 10.8335C3.60156 10.0999 4.11422 9.47236 4.77303 9.03075C5.43184 8.58915 6.20707 8.35336 7.0002 8.35336C7.79332 8.35336 8.56855 8.58915 9.22736 9.03075C9.88617 9.47236 10.3988 10.0999 10.7002 10.8335C9.70758 11.7937 8.38122 12.3314 7.0002 12.3335ZM5.66686 5.66683C5.66686 5.40312 5.74506 5.14533 5.89157 4.92607C6.03808 4.7068 6.24632 4.53591 6.48995 4.43499C6.73359 4.33407 7.00167 4.30767 7.26032 4.35912C7.51896 4.41056 7.75653 4.53755 7.943 4.72402C8.12947 4.91049 8.25646 5.14807 8.30791 5.40671C8.35936 5.66535 8.33295 5.93344 8.23203 6.17707C8.13112 6.42071 7.96022 6.62895 7.74096 6.77546C7.52169 6.92196 7.2639 7.00016 7.0002 7.00016C6.64657 7.00016 6.30744 6.85969 6.05739 6.60964C5.80734 6.35959 5.66686 6.02045 5.66686 5.66683ZM11.6069 9.66683C11.0112 8.648 10.0945 7.85552 9.0002 7.4135C9.33964 7.0286 9.56081 6.55393 9.63718 6.04645C9.71354 5.53897 9.64184 5.02024 9.4307 4.55249C9.21955 4.08475 8.87792 3.68787 8.4468 3.40947C8.01568 3.13108 7.51339 2.983 7.0002 2.983C6.487 2.983 5.98471 3.13108 5.55359 3.40947C5.12247 3.68787 4.78084 4.08475 4.56969 4.55249C4.35855 5.02024 4.28685 5.53897 4.36321 6.04645C4.43958 6.55393 4.66075 7.0286 5.0002 7.4135C3.90593 7.85552 2.98917 8.648 2.39353 9.66683C1.91882 8.85823 1.66801 7.93781 1.66686 7.00016C1.66686 5.58567 2.22877 4.22912 3.22896 3.22893C4.22915 2.22873 5.58571 1.66683 7.0002 1.66683C8.41468 1.66683 9.77124 2.22873 10.7714 3.22893C11.7716 4.22912 12.3335 5.58567 12.3335 7.00016C12.3324 7.93781 12.0816 8.85823 11.6069 9.66683V9.66683Z" fill="#5854C9"/>
</svg>
