<svg width="12" height="14" viewBox="0 0 12 14" fill="none" xmlns="http://www.w3.org/2000/svg">
<path d="M9.99984 0.333496H3.33317C2.62593 0.333496 1.94765 0.614448 1.44755 1.11454C0.947455 1.61464 0.666504 2.29292 0.666504 3.00016V11.0002C0.666504 11.7074 0.947455 12.3857 1.44755 12.8858C1.94765 13.3859 2.62593 13.6668 3.33317 13.6668H9.99984C10.3535 13.6668 10.6926 13.5264 10.9426 13.2763C11.1927 13.0263 11.3332 12.6871 11.3332 12.3335V1.66683C11.3332 1.31321 11.1927 0.974069 10.9426 0.72402C10.6926 0.473972 10.3535 0.333496 9.99984 0.333496ZM1.99984 3.00016C1.99984 2.64654 2.14031 2.3074 2.39036 2.05735C2.64041 1.80731 2.97955 1.66683 3.33317 1.66683H9.99984V8.3335H3.33317C2.8632 8.33547 2.4025 8.46446 1.99984 8.70683V3.00016ZM3.33317 12.3335C2.97955 12.3335 2.64041 12.193 2.39036 11.943C2.14031 11.6929 1.99984 11.3538 1.99984 11.0002C1.99984 10.6465 2.14031 10.3074 2.39036 10.0574C2.64041 9.80731 2.97955 9.66683 3.33317 9.66683H9.99984V12.3335H3.33317ZM4.6665 4.3335H7.33317C7.50998 4.3335 7.67955 4.26326 7.80457 4.13823C7.9296 4.01321 7.99984 3.84364 7.99984 3.66683C7.99984 3.49002 7.9296 3.32045 7.80457 3.19542C7.67955 3.0704 7.50998 3.00016 7.33317 3.00016H4.6665C4.48969 3.00016 4.32012 3.0704 4.1951 3.19542C4.07008 3.32045 3.99984 3.49002 3.99984 3.66683C3.99984 3.84364 4.07008 4.01321 4.1951 4.13823C4.32012 4.26326 4.48969 4.3335 4.6665 4.3335Z" fill="#5854C9"/>
</svg>
