<svg width="12" height="14" viewBox="0 0 12 14" fill="none" xmlns="http://www.w3.org/2000/svg">
<path d="M10.0003 0.333496H3.33366C2.62641 0.333496 1.94814 0.614448 1.44804 1.11454C0.947944 1.61464 0.666992 2.29292 0.666992 3.00016V11.0002C0.666992 11.7074 0.947944 12.3857 1.44804 12.8858C1.94814 13.3859 2.62641 13.6668 3.33366 13.6668H10.0003C10.3539 13.6668 10.6931 13.5264 10.9431 13.2763C11.1932 13.0263 11.3337 12.6871 11.3337 12.3335V1.66683C11.3337 1.31321 11.1932 0.974069 10.9431 0.72402C10.6931 0.473972 10.3539 0.333496 10.0003 0.333496ZM2.00033 3.00016C2.00033 2.64654 2.1408 2.3074 2.39085 2.05735C2.6409 1.80731 2.98004 1.66683 3.33366 1.66683H10.0003V8.3335H3.33366C2.86369 8.33547 2.40299 8.46446 2.00033 8.70683V3.00016ZM3.33366 12.3335C2.98004 12.3335 2.6409 12.193 2.39085 11.943C2.1408 11.6929 2.00033 11.3538 2.00033 11.0002C2.00033 10.6465 2.1408 10.3074 2.39085 10.0574C2.6409 9.8073 2.98004 9.66683 3.33366 9.66683H10.0003V12.3335H3.33366ZM4.66699 4.3335H7.33366C7.51047 4.3335 7.68004 4.26326 7.80506 4.13823C7.93009 4.01321 8.00033 3.84364 8.00033 3.66683C8.00033 3.49002 7.93009 3.32045 7.80506 3.19542C7.68004 3.0704 7.51047 3.00016 7.33366 3.00016H4.66699C4.49018 3.00016 4.32061 3.0704 4.19559 3.19542C4.07056 3.32045 4.00033 3.49002 4.00033 3.66683C4.00033 3.84364 4.07056 4.01321 4.19559 4.13823C4.32061 4.26326 4.49018 4.3335 4.66699 4.3335V4.3335Z" fill="#647288"/>
</svg>
