<svg width="18" height="18" viewBox="0 0 18 18" fill="none" xmlns="http://www.w3.org/2000/svg">
<path d="M13.5 7.1999V5.3999C13.5 2.91462 11.4853 0.899902 9.00005 0.899902C6.51477 0.899902 4.50005 2.91462 4.50005 5.3999V7.1999M9.00005 11.2499V13.0499M6.12005 17.0999H11.88C13.3922 17.0999 14.1483 17.0999 14.7258 16.8056C15.2339 16.5468 15.6469 16.1337 15.9058 15.6257C16.2 15.0481 16.2 14.292 16.2 12.7799V11.5199C16.2 10.0078 16.2 9.25169 15.9058 8.67413C15.6469 8.16609 15.2339 7.75304 14.7258 7.49419C14.1483 7.1999 13.3922 7.1999 11.88 7.1999H6.12005C4.60791 7.1999 3.85184 7.1999 3.27427 7.49419C2.76624 7.75304 2.35319 8.16609 2.09433 8.67413C1.80005 9.25169 1.80005 10.0078 1.80005 11.5199V12.7799C1.80005 14.292 1.80005 15.0481 2.09433 15.6257C2.35319 16.1337 2.76624 16.5468 3.27427 16.8056C3.85184 17.0999 4.60791 17.0999 6.12005 17.0999Z" stroke="#A0ABBB" stroke-width="1.5" stroke-linecap="round" stroke-linejoin="round"/>
</svg>
