<svg width="68" height="69" viewBox="0 0 68 69" fill="none" xmlns="http://www.w3.org/2000/svg">
<g filter="url(#filter0_d_905_96)">
<g filter="url(#filter1_i_905_96)">
<circle cx="33" cy="33.5" r="32" fill="url(#paint0_linear_905_96)"/>
</g>
<path d="M25.5281 21.2331C20.8348 24.2197 20.3726 31.0109 20.7281 34.0331H14.8616C14.8616 27.6331 15.5743 26.0597 16.4616 24.4331C19.6616 18.5665 24.9948 18.7442 25.5281 21.2331Z" fill="white"/>
<path fill-rule="evenodd" clip-rule="evenodd" d="M27.1281 27.6331V21.7664C27.1281 20.6997 27.7681 18.5664 30.3281 18.5664H46.8614C47.5725 19.2775 48.4616 21.1807 46.8614 23.3664H40.9948V26.5664C44.1948 26.922 50.4881 28.9131 50.0614 34.0331H44.1948C43.8392 32.9664 42.7016 30.7807 40.9949 30.7807C41.5282 31.8473 41.4214 33.6064 40.9948 34.0331H34.5948C35.4837 33.322 36.1949 31.8473 35.1282 30.2473C33.1306 27.2508 28.6214 29.7664 30.3281 34.0331H23.9281C23.3948 32.0775 23.2881 28.0597 27.1281 27.6331ZM32.4616 26.5664V23.3664H36.1948L36.1949 26.5665L32.4616 26.5664Z" fill="white"/>
<path fill-rule="evenodd" clip-rule="evenodd" d="M20.7348 35.6331H14.8675C14.8675 45.0198 25.8897 48.0776 31.4009 48.4331C44.2007 56.9665 51.846 48.9665 51.1349 45.2331C49.0016 50.3531 41.3571 48.7887 37.8016 47.3665C45.4816 46.0865 49.1793 39.0109 50.0681 35.6331H44.2015C44.2014 40.7531 39.2237 45.2331 36.7349 46.8331C33.3217 43.4198 27.135 43.6331 24.4683 44.1665C21.4816 41.1798 20.7349 37.2331 20.7348 35.6331ZM24.4683 44.1665C25.3572 45.2331 27.8817 47.3665 30.8682 47.3665C29.8016 46.2998 27.0283 44.1665 24.4683 44.1665Z" fill="white"/>
</g>
<defs>
<filter id="filter0_d_905_96" x="0" y="0.5" width="68" height="68" filterUnits="userSpaceOnUse" color-interpolation-filters="sRGB">
<feFlood flood-opacity="0" result="BackgroundImageFix"/>
<feColorMatrix in="SourceAlpha" type="matrix" values="0 0 0 0 0 0 0 0 0 0 0 0 0 0 0 0 0 0 127 0" result="hardAlpha"/>
<feOffset dx="1" dy="1"/>
<feGaussianBlur stdDeviation="1"/>
<feComposite in2="hardAlpha" operator="out"/>
<feColorMatrix type="matrix" values="0 0 0 0 0 0 0 0 0 0 0 0 0 0 0 0 0 0 0.1 0"/>
<feBlend mode="normal" in2="BackgroundImageFix" result="effect1_dropShadow_905_96"/>
<feBlend mode="normal" in="SourceGraphic" in2="effect1_dropShadow_905_96" result="shape"/>
</filter>
<filter id="filter1_i_905_96" x="1" y="1.5" width="64" height="66" filterUnits="userSpaceOnUse" color-interpolation-filters="sRGB">
<feFlood flood-opacity="0" result="BackgroundImageFix"/>
<feBlend mode="normal" in="SourceGraphic" in2="BackgroundImageFix" result="shape"/>
<feColorMatrix in="SourceAlpha" type="matrix" values="0 0 0 0 0 0 0 0 0 0 0 0 0 0 0 0 0 0 127 0" result="hardAlpha"/>
<feOffset dy="2"/>
<feGaussianBlur stdDeviation="1"/>
<feComposite in2="hardAlpha" operator="arithmetic" k2="-1" k3="1"/>
<feColorMatrix type="matrix" values="0 0 0 0 0 0 0 0 0 0 0 0 0 0 0 0 0 0 0.25 0"/>
<feBlend mode="normal" in2="shape" result="effect1_innerShadow_905_96"/>
</filter>
<linearGradient id="paint0_linear_905_96" x1="83" y1="65.5" x2="-24.6707" y2="51.1817" gradientUnits="userSpaceOnUse">
<stop stop-color="#3D4E81"/>
<stop offset="0.48" stop-color="#5753C9"/>
<stop offset="1" stop-color="#6E7FF3"/>
</linearGradient>
</defs>
</svg>
