<svg width="14" height="12" viewBox="0 0 14 12" fill="none" xmlns="http://www.w3.org/2000/svg">
<path d="M13.6668 5.29317C13.6599 5.23193 13.6465 5.17159 13.6268 5.11317V5.05317C13.5948 4.98462 13.552 4.92161 13.5002 4.8665L9.50016 0.866504C9.44505 0.814648 9.38204 0.771891 9.3135 0.739837H9.24683C9.182 0.705173 9.11234 0.680452 9.04016 0.666504H2.3335C1.80306 0.666504 1.29436 0.877218 0.919283 1.25229C0.54421 1.62736 0.333496 2.13607 0.333496 2.6665V9.33317C0.333496 9.8636 0.54421 10.3723 0.919283 10.7474C1.29436 11.1225 1.80306 11.3332 2.3335 11.3332H11.6668C12.1973 11.3332 12.706 11.1225 13.081 10.7474C13.4561 10.3723 13.6668 9.8636 13.6668 9.33317V5.33317C13.6668 5.33317 13.6668 5.33317 13.6668 5.29317ZM9.66683 2.93984L11.3935 4.6665H10.3335C10.1567 4.6665 9.98711 4.59627 9.86209 4.47124C9.73707 4.34622 9.66683 4.17665 9.66683 3.99984V2.93984ZM12.3335 9.33317C12.3335 9.50998 12.2633 9.67955 12.1382 9.80457C12.0132 9.9296 11.8436 9.99984 11.6668 9.99984H2.3335C2.15668 9.99984 1.98712 9.9296 1.86209 9.80457C1.73707 9.67955 1.66683 9.50998 1.66683 9.33317V2.6665C1.66683 2.48969 1.73707 2.32012 1.86209 2.1951C1.98712 2.07008 2.15668 1.99984 2.3335 1.99984H8.3335V3.99984C8.3335 4.53027 8.54421 5.03898 8.91928 5.41405C9.29435 5.78912 9.80306 5.99984 10.3335 5.99984H12.3335V9.33317ZM3.66683 5.99984H6.3335C6.51031 5.99984 6.67988 5.9296 6.8049 5.80457C6.92992 5.67955 7.00016 5.50998 7.00016 5.33317C7.00016 5.15636 6.92992 4.98679 6.8049 4.86177C6.67988 4.73674 6.51031 4.6665 6.3335 4.6665H3.66683C3.49002 4.6665 3.32045 4.73674 3.19542 4.86177C3.0704 4.98679 3.00016 5.15636 3.00016 5.33317C3.00016 5.50998 3.0704 5.67955 3.19542 5.80457C3.32045 5.9296 3.49002 5.99984 3.66683 5.99984ZM3.66683 7.33317C3.49002 7.33317 3.32045 7.40341 3.19542 7.52843C3.0704 7.65346 3.00016 7.82303 3.00016 7.99984C3.00016 8.17665 3.0704 8.34622 3.19542 8.47124C3.32045 8.59627 3.49002 8.6665 3.66683 8.6665H10.3335C10.5103 8.6665 10.6799 8.59627 10.8049 8.47124C10.9299 8.34622 11.0002 8.17665 11.0002 7.99984C11.0002 7.82303 10.9299 7.65346 10.8049 7.52843C10.6799 7.40341 10.5103 7.33317 10.3335 7.33317H3.66683Z" fill="#5854C9"/>
</svg>
