<svg width="16" height="16" viewBox="0 0 16 16" fill="none" xmlns="http://www.w3.org/2000/svg">
<path d="M14.6663 7.29317C14.6594 7.23193 14.646 7.17159 14.6263 7.11317V7.05317C14.5943 6.98462 14.5515 6.92161 14.4997 6.8665L10.4997 2.8665C10.4446 2.81465 10.3816 2.77189 10.313 2.73984H10.2463C10.1815 2.70517 10.1118 2.68045 10.0397 2.6665H3.33301C2.80257 2.6665 2.29387 2.87722 1.91879 3.25229C1.54372 3.62736 1.33301 4.13607 1.33301 4.6665V11.3332C1.33301 11.8636 1.54372 12.3723 1.91879 12.7474C2.29387 13.1225 2.80257 13.3332 3.33301 13.3332H12.6663C13.1968 13.3332 13.7055 13.1225 14.0806 12.7474C14.4556 12.3723 14.6663 11.8636 14.6663 11.3332V7.33317C14.6663 7.33317 14.6663 7.33317 14.6663 7.29317ZM10.6663 4.93984L12.393 6.6665H11.333C11.1562 6.6665 10.9866 6.59627 10.8616 6.47124C10.7366 6.34622 10.6663 6.17665 10.6663 5.99984V4.93984ZM13.333 11.3332C13.333 11.51 13.2628 11.6796 13.1377 11.8046C13.0127 11.9296 12.8432 11.9998 12.6663 11.9998H3.33301C3.1562 11.9998 2.98663 11.9296 2.8616 11.8046C2.73658 11.6796 2.66634 11.51 2.66634 11.3332V4.6665C2.66634 4.48969 2.73658 4.32012 2.8616 4.1951C2.98663 4.07008 3.1562 3.99984 3.33301 3.99984H9.33301V5.99984C9.33301 6.53027 9.54372 7.03898 9.91879 7.41405C10.2939 7.78912 10.8026 7.99984 11.333 7.99984H13.333V11.3332ZM4.66634 7.99984H7.33301C7.50982 7.99984 7.67939 7.9296 7.80441 7.80457C7.92944 7.67955 7.99967 7.50998 7.99967 7.33317C7.99967 7.15636 7.92944 6.98679 7.80441 6.86177C7.67939 6.73674 7.50982 6.6665 7.33301 6.6665H4.66634C4.48953 6.6665 4.31996 6.73674 4.19494 6.86177C4.06991 6.98679 3.99967 7.15636 3.99967 7.33317C3.99967 7.50998 4.06991 7.67955 4.19494 7.80457C4.31996 7.9296 4.48953 7.99984 4.66634 7.99984ZM4.66634 9.33317C4.48953 9.33317 4.31996 9.40341 4.19494 9.52843C4.06991 9.65346 3.99967 9.82303 3.99967 9.99984C3.99967 10.1766 4.06991 10.3462 4.19494 10.4712C4.31996 10.5963 4.48953 10.6665 4.66634 10.6665H11.333C11.5098 10.6665 11.6794 10.5963 11.8044 10.4712C11.9294 10.3462 11.9997 10.1766 11.9997 9.99984C11.9997 9.82303 11.9294 9.65346 11.8044 9.52843C11.6794 9.40341 11.5098 9.33317 11.333 9.33317H4.66634Z" fill="#647288"/>
</svg>
