<svg width="16" height="16" viewBox="0 0 16 16" fill="none" xmlns="http://www.w3.org/2000/svg">
<path d="M14.213 6.36683L12.953 5.94683L13.5463 4.76016C13.6065 4.63596 13.6266 4.49614 13.6039 4.36001C13.5812 4.22389 13.5169 4.09815 13.4197 4.00016L11.9997 2.58016C11.9012 2.48156 11.7742 2.4163 11.6367 2.39358C11.4992 2.37086 11.358 2.39182 11.233 2.4535L10.0463 3.04683L9.62634 1.78683C9.58199 1.65549 9.49779 1.54125 9.38547 1.46C9.27315 1.37875 9.1383 1.33453 8.99968 1.3335H6.99968C6.85991 1.33314 6.72357 1.37671 6.60992 1.45806C6.49628 1.53941 6.41107 1.65442 6.36634 1.78683L5.94634 3.04683L4.75968 2.4535C4.63547 2.39335 4.49565 2.37323 4.35953 2.39592C4.2234 2.41861 4.09767 2.48299 3.99968 2.58016L2.57968 4.00016C2.48107 4.09868 2.41581 4.22562 2.39309 4.36314C2.37037 4.50066 2.39133 4.64184 2.45301 4.76683L3.04634 5.9535L1.78634 6.3735C1.655 6.41786 1.54076 6.50205 1.45951 6.61437C1.37826 6.72669 1.33404 6.86154 1.33301 7.00016V9.00016C1.33265 9.13993 1.37622 9.27627 1.45757 9.38992C1.53892 9.50357 1.65393 9.58877 1.78634 9.6335L3.04634 10.0535L2.45301 11.2402C2.39286 11.3644 2.37275 11.5042 2.39543 11.6403C2.41812 11.7764 2.4825 11.9022 2.57968 12.0002L3.99968 13.4202C4.09819 13.5188 4.22513 13.584 4.36265 13.6067C4.50017 13.6295 4.64135 13.6085 4.76634 13.5468L5.95301 12.9535L6.37301 14.2135C6.41773 14.3459 6.50294 14.4609 6.61659 14.5423C6.73024 14.6236 6.86658 14.6672 7.00634 14.6668H9.00634C9.14611 14.6672 9.28245 14.6236 9.3961 14.5423C9.50974 14.4609 9.59495 14.3459 9.63968 14.2135L10.0597 12.9535L11.2463 13.5468C11.3698 13.6055 11.5082 13.6248 11.643 13.6021C11.7777 13.5794 11.9022 13.5159 11.9997 13.4202L13.4197 12.0002C13.5183 11.9017 13.5835 11.7747 13.6063 11.6372C13.629 11.4997 13.608 11.3585 13.5463 11.2335L12.953 10.0468L14.213 9.62683C14.3443 9.58247 14.4586 9.49828 14.5398 9.38596C14.6211 9.27364 14.6653 9.13879 14.6663 9.00016V7.00016C14.6667 6.8604 14.6231 6.72406 14.5418 6.61041C14.4604 6.49676 14.3454 6.41156 14.213 6.36683ZM13.333 8.52016L12.533 8.78683C12.349 8.8465 12.1803 8.94548 12.0384 9.0769C11.8965 9.20832 11.7849 9.36903 11.7113 9.54788C11.6377 9.72674 11.604 9.91946 11.6123 10.1127C11.6207 10.3059 11.6709 10.495 11.7597 10.6668L12.1397 11.4268L11.4063 12.1602L10.6663 11.7602C10.4954 11.675 10.3081 11.6275 10.1172 11.621C9.92632 11.6145 9.73626 11.6491 9.55989 11.7224C9.38352 11.7958 9.22496 11.9061 9.09496 12.0461C8.96495 12.186 8.86652 12.3522 8.80634 12.5335L8.53968 13.3335H7.47968L7.21301 12.5335C7.15334 12.3495 7.05436 12.1808 6.92294 12.0389C6.79153 11.897 6.63081 11.7854 6.45196 11.7118C6.2731 11.6382 6.08038 11.6045 5.88716 11.6128C5.69394 11.6212 5.50485 11.6714 5.33301 11.7602L4.57301 12.1402L3.83968 11.4068L4.23968 10.6668C4.32841 10.495 4.37869 10.3059 4.38704 10.1127C4.39539 9.91946 4.36161 9.72674 4.28804 9.54788C4.21446 9.36903 4.10286 9.20832 3.96097 9.0769C3.81908 8.94548 3.65031 8.8465 3.46634 8.78683L2.66634 8.52016V7.48017L3.46634 7.2135C3.65031 7.15383 3.81908 7.05485 3.96097 6.92343C4.10286 6.79201 4.21446 6.6313 4.28804 6.45245C4.36161 6.27359 4.39539 6.08087 4.38704 5.88765C4.37869 5.69443 4.32841 5.50534 4.23968 5.3335L3.85968 4.5935L4.59301 3.86017L5.33301 4.24017C5.50485 4.32889 5.69394 4.37918 5.88716 4.38753C6.08038 4.39588 6.2731 4.3621 6.45196 4.28852C6.63081 4.21495 6.79153 4.10335 6.92294 3.96146C7.05436 3.81957 7.15334 3.65079 7.21301 3.46683L7.47968 2.66683H8.51968L8.78634 3.46683C8.84602 3.65079 8.94499 3.81957 9.07641 3.96146C9.20783 4.10335 9.36854 4.21495 9.5474 4.28852C9.72625 4.3621 9.91898 4.39588 10.1122 4.38753C10.3054 4.37918 10.4945 4.32889 10.6663 4.24017L11.4263 3.86017L12.1597 4.5935L11.7597 5.3335C11.6745 5.50446 11.6271 5.69173 11.6205 5.88262C11.614 6.07352 11.6486 6.26358 11.7219 6.43995C11.7953 6.61632 11.9056 6.77488 12.0456 6.90489C12.1855 7.03489 12.3517 7.13332 12.533 7.1935L13.333 7.46016V8.52016ZM7.99968 5.3335C7.47226 5.3335 6.95669 5.4899 6.51816 5.78291C6.07963 6.07593 5.73783 6.49241 5.536 6.97968C5.33416 7.46695 5.28136 8.00312 5.38425 8.52041C5.48714 9.03769 5.74112 9.51284 6.11406 9.88578C6.487 10.2587 6.96215 10.5127 7.47944 10.6156C7.99672 10.7185 8.5329 10.6657 9.02017 10.4638C9.50744 10.262 9.92391 9.92022 10.2169 9.48169C10.5099 9.04315 10.6663 8.52758 10.6663 8.00016C10.6663 7.29292 10.3854 6.61464 9.88529 6.11455C9.3852 5.61445 8.70692 5.3335 7.99968 5.3335ZM7.99968 9.3335C7.73597 9.3335 7.47818 9.2553 7.25892 9.10879C7.03965 8.96228 6.86875 8.75404 6.76784 8.51041C6.66692 8.26677 6.64052 7.99869 6.69196 7.74004C6.74341 7.4814 6.8704 7.24383 7.05687 7.05736C7.24334 6.87089 7.48092 6.7439 7.73956 6.69245C7.9982 6.641 8.26629 6.66741 8.50992 6.76833C8.75356 6.86924 8.96179 7.04014 9.1083 7.2594C9.25481 7.47867 9.33301 7.73646 9.33301 8.00016C9.33301 8.35379 9.19253 8.69292 8.94249 8.94297C8.69244 9.19302 8.3533 9.3335 7.99968 9.3335Z" fill="#647288"/>
</svg>
