<svg width="14" height="14" viewBox="0 0 14 14" fill="none" xmlns="http://www.w3.org/2000/svg">
<path d="M13.2135 5.36683L11.9535 4.94683L12.5468 3.76016C12.607 3.63596 12.6271 3.49614 12.6044 3.36001C12.5817 3.22389 12.5173 3.09815 12.4202 3.00017L11.0002 1.58016C10.9017 1.48156 10.7747 1.4163 10.6372 1.39358C10.4997 1.37086 10.3585 1.39182 10.2335 1.4535L9.04683 2.04683L8.62683 0.786832C8.58247 0.655493 8.49828 0.541249 8.38596 0.459997C8.27364 0.378745 8.13879 0.334528 8.00016 0.333498H6.00016C5.8604 0.333138 5.72406 0.376711 5.61041 0.45806C5.49676 0.539408 5.41156 0.654418 5.36683 0.786832L4.94683 2.04683L3.76016 1.4535C3.63596 1.39335 3.49614 1.37323 3.36001 1.39592C3.22389 1.41861 3.09815 1.48299 3.00017 1.58016L1.58016 3.00017C1.48156 3.09868 1.4163 3.22562 1.39358 3.36314C1.37086 3.50066 1.39182 3.64184 1.4535 3.76683L2.04683 4.9535L0.786832 5.3735C0.655493 5.41786 0.541249 5.50205 0.459997 5.61437C0.378745 5.72669 0.334528 5.86154 0.333498 6.00016V8.00016C0.333138 8.13993 0.376711 8.27627 0.45806 8.38992C0.539408 8.50357 0.654418 8.58877 0.786832 8.6335L2.04683 9.0535L1.4535 10.2402C1.39335 10.3644 1.37323 10.5042 1.39592 10.6403C1.41861 10.7764 1.48299 10.9022 1.58016 11.0002L3.00017 12.4202C3.09868 12.5188 3.22562 12.584 3.36314 12.6067C3.50066 12.6295 3.64184 12.6085 3.76683 12.5468L4.9535 11.9535L5.3735 13.2135C5.41822 13.3459 5.50343 13.4609 5.61708 13.5423C5.73073 13.6236 5.86707 13.6672 6.00683 13.6668H8.00683C8.14659 13.6672 8.28294 13.6236 8.39658 13.5423C8.51023 13.4609 8.59544 13.3459 8.64016 13.2135L9.06017 11.9535L10.2468 12.5468C10.3702 12.6055 10.5087 12.6248 10.6434 12.6021C10.7782 12.5794 10.9027 12.5159 11.0002 12.4202L12.4202 11.0002C12.5188 10.9017 12.584 10.7747 12.6067 10.6372C12.6295 10.4997 12.6085 10.3585 12.5468 10.2335L11.9535 9.04683L13.2135 8.62683C13.3448 8.58247 13.4591 8.49828 13.5403 8.38596C13.6216 8.27364 13.6658 8.13879 13.6668 8.00016V6.00016C13.6672 5.8604 13.6236 5.72406 13.5423 5.61041C13.4609 5.49676 13.3459 5.41156 13.2135 5.36683ZM12.3335 7.52016L11.5335 7.78683C11.3495 7.8465 11.1808 7.94548 11.0389 8.0769C10.897 8.20832 10.7854 8.36903 10.7118 8.54788C10.6382 8.72674 10.6045 8.91946 10.6128 9.11268C10.6212 9.3059 10.6714 9.49499 10.7602 9.66683L11.1402 10.4268L10.4068 11.1602L9.66683 10.7602C9.49587 10.675 9.3086 10.6275 9.11771 10.621C8.92681 10.6145 8.73675 10.6491 8.56038 10.7224C8.38401 10.7958 8.22545 10.9061 8.09544 11.0461C7.96544 11.186 7.86701 11.3522 7.80683 11.5335L7.54017 12.3335H6.48017L6.2135 11.5335C6.15383 11.3495 6.05485 11.1808 5.92343 11.0389C5.79201 10.897 5.6313 10.7854 5.45245 10.7118C5.27359 10.6382 5.08087 10.6045 4.88765 10.6128C4.69443 10.6212 4.50534 10.6714 4.3335 10.7602L3.5735 11.1402L2.84017 10.4068L3.24017 9.66683C3.32889 9.49499 3.37918 9.3059 3.38753 9.11268C3.39588 8.91946 3.3621 8.72674 3.28852 8.54788C3.21495 8.36903 3.10335 8.20832 2.96146 8.0769C2.81957 7.94548 2.65079 7.8465 2.46683 7.78683L1.66683 7.52016V6.48017L2.46683 6.2135C2.65079 6.15383 2.81957 6.05485 2.96146 5.92343C3.10335 5.79201 3.21495 5.6313 3.28852 5.45245C3.3621 5.27359 3.39588 5.08087 3.38753 4.88765C3.37918 4.69443 3.32889 4.50534 3.24017 4.3335L2.86017 3.5935L3.5935 2.86017L4.3335 3.24017C4.50534 3.32889 4.69443 3.37918 4.88765 3.38753C5.08087 3.39588 5.27359 3.3621 5.45245 3.28852C5.6313 3.21495 5.79201 3.10335 5.92343 2.96146C6.05485 2.81957 6.15383 2.65079 6.2135 2.46683L6.48017 1.66683H7.52016L7.78683 2.46683C7.8465 2.65079 7.94548 2.81957 8.0769 2.96146C8.20832 3.10335 8.36903 3.21495 8.54788 3.28852C8.72674 3.3621 8.91946 3.39588 9.11268 3.38753C9.3059 3.37918 9.49499 3.32889 9.66683 3.24017L10.4268 2.86017L11.1602 3.5935L10.7602 4.3335C10.675 4.50446 10.6275 4.69173 10.621 4.88262C10.6145 5.07352 10.6491 5.26358 10.7224 5.43995C10.7958 5.61632 10.9061 5.77488 11.0461 5.90489C11.186 6.03489 11.3522 6.13332 11.5335 6.1935L12.3335 6.46016V7.52016ZM7.00016 4.3335C6.47275 4.3335 5.95718 4.4899 5.51864 4.78291C5.08011 5.07593 4.73832 5.49241 4.53649 5.97968C4.33465 6.46695 4.28184 7.00312 4.38474 7.52041C4.48763 8.03769 4.74161 8.51284 5.11455 8.88578C5.48749 9.25872 5.96264 9.5127 6.47992 9.61559C6.99721 9.71849 7.53338 9.66568 8.02065 9.46384C8.50792 9.26201 8.9244 8.92022 9.21742 8.48169C9.51043 8.04315 9.66683 7.52758 9.66683 7.00016C9.66683 6.29292 9.38588 5.61464 8.88578 5.11455C8.38569 4.61445 7.70741 4.3335 7.00016 4.3335V4.3335ZM7.00016 8.3335C6.73646 8.3335 6.47867 8.2553 6.2594 8.10879C6.04014 7.96228 5.86924 7.75404 5.76833 7.51041C5.66741 7.26677 5.641 6.99869 5.69245 6.74004C5.7439 6.4814 5.87089 6.24383 6.05736 6.05736C6.24383 5.87089 6.4814 5.7439 6.74004 5.69245C6.99869 5.641 7.26677 5.66741 7.51041 5.76833C7.75404 5.86924 7.96228 6.04014 8.10879 6.2594C8.2553 6.47867 8.3335 6.73646 8.3335 7.00016C8.3335 7.35379 8.19302 7.69293 7.94297 7.94297C7.69293 8.19302 7.35379 8.3335 7.00016 8.3335Z" fill="#5854C9"/>
</svg>
