<svg width="16" height="17" viewBox="0 0 16 17" fill="none" xmlns="http://www.w3.org/2000/svg">
<path d="M13.8609 8.90513C14.0237 8.76563 14.105 8.69589 14.1348 8.61289C14.161 8.54004 14.161 8.46035 14.1348 8.3875C14.105 8.3045 14.0237 8.23476 13.8609 8.09526L8.21375 3.25484C7.9336 3.01471 7.79353 2.89465 7.67493 2.8917C7.57186 2.88915 7.47341 2.93443 7.40828 3.01435C7.33333 3.1063 7.33333 3.2908 7.33333 3.65978V6.52328C5.91021 6.77225 4.60773 7.49337 3.63981 8.57611C2.58455 9.75654 2.00082 11.2842 2 12.8675V13.2755C2.69956 12.4328 3.573 11.7512 4.56051 11.2775C5.43113 10.8598 6.37228 10.6124 7.33333 10.5472V13.3406C7.33333 13.7096 7.33333 13.8941 7.40828 13.986C7.47341 14.066 7.57186 14.1112 7.67493 14.1087C7.79353 14.1057 7.9336 13.9857 8.21375 13.7455L13.8609 8.90513Z" stroke="#A0ABBB" stroke-linecap="round" stroke-linejoin="round"/>
</svg>
