<svg width="16" height="16" viewBox="0 0 16 16" fill="none" xmlns="http://www.w3.org/2000/svg">
<path d="M7.99971 1.3335C6.70669 1.33595 5.4423 1.71437 4.36053 2.42266C3.27876 3.13094 2.4263 4.13852 1.907 5.32268C1.3877 6.50683 1.22396 7.81644 1.43572 9.092C1.64749 10.3676 2.22563 11.554 3.09971 12.5068C3.72399 13.1835 4.48167 13.7236 5.325 14.093C6.16833 14.4623 7.07903 14.653 7.99971 14.653C8.92039 14.653 9.83109 14.4623 10.6744 14.093C11.5177 13.7236 12.2754 13.1835 12.8997 12.5068C13.7738 11.554 14.3519 10.3676 14.5637 9.092C14.7755 7.81644 14.6117 6.50683 14.0924 5.32268C13.5731 4.13852 12.7207 3.13094 11.6389 2.42266C10.5571 1.71437 9.29272 1.33595 7.99971 1.3335ZM7.99971 13.3335C6.61868 13.3314 5.29232 12.7937 4.29971 11.8335C4.60107 11.0999 5.11373 10.4724 5.77254 10.0308C6.43136 9.58915 7.20658 9.35336 7.99971 9.35336C8.79283 9.35336 9.56806 9.58915 10.2269 10.0308C10.8857 10.4724 11.3983 11.0999 11.6997 11.8335C10.7071 12.7937 9.38073 13.3314 7.99971 13.3335ZM6.66637 6.66683C6.66637 6.40312 6.74457 6.14533 6.89108 5.92607C7.03759 5.7068 7.24583 5.53591 7.48946 5.43499C7.7331 5.33407 8.00119 5.30767 8.25983 5.35912C8.51847 5.41056 8.75605 5.53755 8.94252 5.72402C9.12899 5.91049 9.25597 6.14807 9.30742 6.40671C9.35887 6.66535 9.33246 6.93344 9.23155 7.17707C9.13063 7.42071 8.95973 7.62895 8.74047 7.77546C8.5212 7.92196 8.26342 8.00016 7.99971 8.00016C7.64609 8.00016 7.30695 7.85969 7.0569 7.60964C6.80685 7.35959 6.66637 7.02045 6.66637 6.66683ZM12.6064 10.6668C12.0107 9.648 11.094 8.85552 9.99971 8.4135C10.3392 8.0286 10.5603 7.55393 10.6367 7.04645C10.713 6.53897 10.6414 6.02024 10.4302 5.55249C10.2191 5.08475 9.87743 4.68787 9.44631 4.40947C9.01519 4.13108 8.5129 3.983 7.99971 3.983C7.48651 3.983 6.98422 4.13108 6.5531 4.40947C6.12198 4.68787 5.78035 5.08475 5.56921 5.55249C5.35806 6.02024 5.28637 6.53897 5.36273 7.04645C5.43909 7.55393 5.66026 8.0286 5.99971 8.4135C4.90544 8.85552 3.98869 9.648 3.39304 10.6668C2.91834 9.85823 2.66752 8.93781 2.66637 8.00016C2.66637 6.58567 3.22828 5.22912 4.22847 4.22893C5.22867 3.22873 6.58522 2.66683 7.99971 2.66683C9.4142 2.66683 10.7708 3.22873 11.7709 4.22893C12.7711 5.22912 13.333 6.58567 13.333 8.00016C13.3319 8.93781 13.0811 9.85823 12.6064 10.6668Z" fill="#647288"/>
</svg>
